HIERARCHY
ROOT Hips
{
	OFFSET 0.000000 97.167313 0.000000
	CHANNELS 6 Xposition Yposition Zposition Xrotation Yrotation Zrotation
	JOINT Spine
	{
		OFFSET 0.000000 13.784798 0.064400
		CHANNELS 3 Xrotation Yrotation Zrotation
		JOINT Spine1
		{
			OFFSET 0.000000 12.037903 0.404700
			CHANNELS 3 Xrotation Yrotation Zrotation
			JOINT Spine2
			{
				OFFSET 0.000000 17.795601 0.420200
				CHANNELS 3 Xrotation Yrotation Zrotation
				JOINT Neck
				{
					OFFSET 0.000000 39.131302 11.954600
					CHANNELS 3 Xrotation Yrotation Zrotation
					JOINT Head
					{
						OFFSET 0.000000 14.456192 15.627699
						CHANNELS 3 Xrotation Yrotation Zrotation
						JOINT HeadTop_End
						{
							OFFSET 0.000000 15.703506 7.603401
							CHANNELS 3 Xrotation Yrotation Zrotation
							End Site
							{
								OFFSET 0.000000 17.447403 0.000000
							}
						}
					}
				}
				JOINT LeftShoulder
				{
					OFFSET 17.399500 24.608795 1.168800
					CHANNELS 3 Xrotation Yrotation Zrotation
					JOINT LeftArm
					{
						OFFSET 18.980635 5.765305 1.818600
						CHANNELS 3 Xrotation Yrotation Zrotation
						JOINT LeftForeArm
						{
							OFFSET 49.290169 0.000000 0.000000
							CHANNELS 3 Xrotation Yrotation Zrotation
							JOINT LeftHand
							{
								OFFSET 31.562012 0.000000 0.000000
								CHANNELS 3 Xrotation Yrotation Zrotation
								JOINT LeftHandThumb1
								{
									OFFSET 6.133995 -4.388519 7.076070
									CHANNELS 3 Xrotation Yrotation Zrotation
									JOINT LeftHandThumb2
									{
										OFFSET 6.037666 -3.485840 3.485847
										CHANNELS 3 Xrotation Yrotation Zrotation
										JOINT LeftHandThumb3
										{
											OFFSET 6.496506 -3.750763 3.750761
											CHANNELS 3 Xrotation Yrotation Zrotation
											JOINT LeftHandThumb4
											{
												OFFSET 5.616882 -3.242905 3.242910
												CHANNELS 3 Xrotation Yrotation Zrotation
												End Site
												{
													OFFSET -1.254608 7.132141 0.375429
												}
											}
										}
									}
								}
								JOINT LeftHandPinky1
								{
									OFFSET 18.920792 -0.453171 -11.426712
									CHANNELS 3 Xrotation Yrotation Zrotation
									JOINT LeftHandPinky2
									{
										OFFSET 4.919586 0.000000 0.000000
										CHANNELS 3 Xrotation Yrotation Zrotation
										JOINT LeftHandPinky3
										{
											OFFSET 5.233047 0.000000 0.000000
											CHANNELS 3 Xrotation Yrotation Zrotation
											JOINT LeftHandPinky4
											{
												OFFSET 5.571716 0.000000 0.000000
												CHANNELS 3 Xrotation Yrotation Zrotation
												End Site
												{
													OFFSET -3.459808 4.342407 -0.466164
												}
											}
										}
									}
								}
								JOINT LeftHandRing1
								{
									OFFSET 22.726120 -0.094986 -6.500475
									CHANNELS 3 Xrotation Yrotation Zrotation
									JOINT LeftHandRing2
									{
										OFFSET 6.408615 0.000000 0.000000
										CHANNELS 3 Xrotation Yrotation Zrotation
										JOINT LeftHandRing3
										{
											OFFSET 6.150223 0.000000 0.000000
											CHANNELS 3 Xrotation Yrotation Zrotation
											JOINT LeftHandRing4
											{
												OFFSET 6.145386 0.000000 0.000000
												CHANNELS 3 Xrotation Yrotation Zrotation
												End Site
												{
													OFFSET -3.671402 4.923981 -0.202372
												}
											}
										}
									}
								}
								JOINT LeftHandMiddle1
								{
									OFFSET 23.373947 0.000000 0.000001
									CHANNELS 3 Xrotation Yrotation Zrotation
									JOINT LeftHandMiddle2
									{
										OFFSET 6.996567 0.000000 0.000000
										CHANNELS 3 Xrotation Yrotation Zrotation
										JOINT LeftHandMiddle3
										{
											OFFSET 7.015945 0.000000 0.000000
											CHANNELS 3 Xrotation Yrotation Zrotation
											JOINT LeftHandMiddle4
											{
												OFFSET 7.721573 0.000000 0.000000
												CHANNELS 3 Xrotation Yrotation Zrotation
												End Site
												{
													OFFSET -4.651108 6.158463 0.251582
												}
											}
										}
									}
								}
								JOINT LeftHandIndex1
								{
									OFFSET 21.310577 -0.490082 6.209344
									CHANNELS 3 Xrotation Yrotation Zrotation
									JOINT LeftHandIndex2
									{
										OFFSET 7.536453 0.000000 0.000000
										CHANNELS 3 Xrotation Yrotation Zrotation
										JOINT LeftHandIndex3
										{
											OFFSET 7.512344 0.000000 0.000000
											CHANNELS 3 Xrotation Yrotation Zrotation
											JOINT LeftHandIndex4
											{
												OFFSET 10.212402 0.000000 0.000001
												CHANNELS 3 Xrotation Yrotation Zrotation
												End Site
												{
													OFFSET -5.180801 8.690506 1.388433
												}
											}
										}
									}
								}
							}
						}
					}
				}
				JOINT RightShoulder
				{
					OFFSET -17.399500 24.608795 1.168800
					CHANNELS 3 Xrotation Yrotation Zrotation
					JOINT RightArm
					{
						OFFSET -18.980635 5.765305 1.818600
						CHANNELS 3 Xrotation Yrotation Zrotation
						JOINT RightForeArm
						{
							OFFSET -49.290169 0.000000 0.000000
							CHANNELS 3 Xrotation Yrotation Zrotation
							JOINT RightHand
							{
								OFFSET -31.562012 0.000000 0.000000
								CHANNELS 3 Xrotation Yrotation Zrotation
								JOINT RightHandThumb1
								{
									OFFSET -6.133995 -4.388519 7.076070
									CHANNELS 3 Xrotation Yrotation Zrotation
									JOINT RightHandThumb2
									{
										OFFSET -6.037666 -3.485840 3.485847
										CHANNELS 3 Xrotation Yrotation Zrotation
										JOINT RightHandThumb3
										{
											OFFSET -6.496506 -3.750763 3.750761
											CHANNELS 3 Xrotation Yrotation Zrotation
											JOINT RightHandThumb4
											{
												OFFSET -5.616882 -3.242905 3.242910
												CHANNELS 3 Xrotation Yrotation Zrotation
												End Site
												{
													OFFSET 1.254608 7.132141 0.375429
												}
											}
										}
									}
								}
								JOINT RightHandIndex1
								{
									OFFSET -21.310577 -0.490082 6.209344
									CHANNELS 3 Xrotation Yrotation Zrotation
									JOINT RightHandIndex2
									{
										OFFSET -7.536453 0.000000 0.000000
										CHANNELS 3 Xrotation Yrotation Zrotation
										JOINT RightHandIndex3
										{
											OFFSET -7.512344 0.000000 0.000000
											CHANNELS 3 Xrotation Yrotation Zrotation
											JOINT RightHandIndex4
											{
												OFFSET -10.212402 0.000000 0.000001
												CHANNELS 3 Xrotation Yrotation Zrotation
												End Site
												{
													OFFSET 5.180801 8.690506 1.388433
												}
											}
										}
									}
								}
								JOINT RightHandMiddle1
								{
									OFFSET -23.373947 0.000000 0.000001
									CHANNELS 3 Xrotation Yrotation Zrotation
									JOINT RightHandMiddle2
									{
										OFFSET -6.996567 0.000000 0.000000
										CHANNELS 3 Xrotation Yrotation Zrotation
										JOINT RightHandMiddle3
										{
											OFFSET -7.015945 0.000000 0.000000
											CHANNELS 3 Xrotation Yrotation Zrotation
											JOINT RightHandMiddle4
											{
												OFFSET -7.721573 0.000000 0.000000
												CHANNELS 3 Xrotation Yrotation Zrotation
												End Site
												{
													OFFSET 4.651108 6.158463 0.251582
												}
											}
										}
									}
								}
								JOINT RightHandRing1
								{
									OFFSET -22.726120 -0.094986 -6.500475
									CHANNELS 3 Xrotation Yrotation Zrotation
									JOINT RightHandRing2
									{
										OFFSET -6.408615 0.000000 0.000000
										CHANNELS 3 Xrotation Yrotation Zrotation
										JOINT RightHandRing3
										{
											OFFSET -6.150223 0.000000 0.000000
											CHANNELS 3 Xrotation Yrotation Zrotation
											JOINT RightHandRing4
											{
												OFFSET -6.145386 0.000000 0.000000
												CHANNELS 3 Xrotation Yrotation Zrotation
												End Site
												{
													OFFSET 3.671402 4.923981 -0.202372
												}
											}
										}
									}
								}
								JOINT RightHandPinky1
								{
									OFFSET -18.920792 -0.453171 -11.426712
									CHANNELS 3 Xrotation Yrotation Zrotation
									JOINT RightHandPinky2
									{
										OFFSET -4.919586 0.000000 0.000000
										CHANNELS 3 Xrotation Yrotation Zrotation
										JOINT RightHandPinky3
										{
											OFFSET -5.233047 0.000000 0.000000
											CHANNELS 3 Xrotation Yrotation Zrotation
											JOINT RightHandPinky4
											{
												OFFSET -5.571716 0.000000 0.000000
												CHANNELS 3 Xrotation Yrotation Zrotation
												End Site
												{
													OFFSET 3.459808 4.342407 -0.466164
												}
											}
										}
									}
								}
							}
						}
					}
				}
			}
		}
	}
	JOINT LeftUpLeg
	{
		OFFSET 19.899099 -7.885101 -3.429500
		CHANNELS 3 Xrotation Yrotation Zrotation
		JOINT LeftLeg
		{
			OFFSET 1.745560 -36.997807 10.304700
			CHANNELS 3 Xrotation Yrotation Zrotation
			JOINT LeftFoot
			{
				OFFSET -1.745558 -29.803308 -13.615400
				CHANNELS 3 Xrotation Yrotation Zrotation
				JOINT LeftToeBase
				{
					OFFSET 1.181900 -18.539904 15.226099
					CHANNELS 3 Xrotation Yrotation Zrotation
					JOINT LeftToe_End
					{
						OFFSET -0.863701 1.402801 16.534700
						CHANNELS 3 Xrotation Yrotation Zrotation
						End Site
						{
							OFFSET 0.000000 16.616566 0.000000
						}
					}
				}
			}
		}
	}
	JOINT RightUpLeg
	{
		OFFSET -19.899099 -7.885101 -3.429500
		CHANNELS 3 Xrotation Yrotation Zrotation
		JOINT RightLeg
		{
			OFFSET -1.745560 -36.997807 10.304700
			CHANNELS 3 Xrotation Yrotation Zrotation
			JOINT RightFoot
			{
				OFFSET 1.745558 -29.803308 -13.615400
				CHANNELS 3 Xrotation Yrotation Zrotation
				JOINT RightToeBase
				{
					OFFSET -1.181900 -18.539904 15.226099
					CHANNELS 3 Xrotation Yrotation Zrotation
					JOINT RightToe_End
					{
						OFFSET 0.863701 1.402801 16.534700
						CHANNELS 3 Xrotation Yrotation Zrotation
						End Site
						{
							OFFSET 0.000000 16.616566 0.000000
						}
					}
				}
			}
		}
	}
}
MOTION
Frames: 4
Frame Time: 0.033333
3.290884 73.818527 0.387814 11.273014 -1.227949 -5.825252 9.983347 1.788334 7.925416 2.029120 -0.047010 0.508499 4.987204 -0.052526 0.186542 -3.841294 -0.341669 -0.277917 -16.135760 0.809280 -3.139613 0.000001 0.000000 0.000000 0.557761 -4.314582 -11.777468 13.923802 -4.817008 -56.121410 -0.000000 -89.999996 -0.000009 3.946646 -2.534493 11.903134 -0.820504 6.623786 -5.864578 14.168521 15.386710 18.402787 -0.847662 -39.830443 12.903368 -0.000003 0.000001 -0.000002 7.311317 13.596480 -78.537244 4.413842 5.672386 -75.756941 4.171602 5.605661 -73.291966 -0.000001 0.000003 -0.000007 2.753114 7.678704 -78.443500 5.946891 5.850276 -90.939871 3.878864 5.509731 -70.270181 -0.000000 0.000000 0.000003 4.883438 8.107982 -80.603370 4.657625 5.728480 -78.210761 3.078733 5.154601 -61.676110 0.000000 0.000002 0.000001 9.947286 5.735732 -90.836243 4.054211 5.569244 -72.086431 5.462409 5.838175 -86.184795 -0.000001 0.000003 0.000002 0.567969 4.488694 11.813867 -16.187053 25.518733 44.451165 -0.009510 90.272268 0.010298 7.844000 11.318587 -12.809354 5.535801 -3.771047 -3.032804 2.457543 -9.078653 -15.939554 -8.950778 17.083985 -15.511807 -0.000001 -0.000001 0.000002 -3.723523 -3.298335 73.104990 3.463143 -4.501829 75.128509 2.055822 -3.864243 56.013910 0.000001 -0.000003 -0.000002 -3.073199 -4.980237 74.622358 3.766048 -4.571304 78.956966 3.246679 -4.438874 72.351955 0.000001 0.000000 -0.000008 -3.819521 -5.359669 78.849541 3.124254 -4.398154 70.762809 2.797534 -4.270507 66.441888 0.000000 0.000001 -0.000003 -1.444003 -6.451686 84.219531 3.515528 -4.515378 75.795087 1.230079 -3.155325 42.587193 -0.000001 0.000000 0.000004 -35.085241 0.617891 6.308881 124.286493 5.277969 -0.891227 -13.602634 2.697849 -3.946389 -0.230049 -0.000003 0.000003 -0.000000 0.000001 0.000000 -33.550227 -11.114182 8.022003 58.332363 0.126371 0.893185 -35.581911 2.913302 -7.580483 1.388384 -0.000170 0.157289 -0.000000 -0.000000 -0.000000 
3.653657 75.149963 16.898256 10.699043 0.299363 -2.410040 9.779928 3.157711 5.151377 2.274133 0.870200 -0.608181 5.073982 0.808524 -0.949478 -3.904139 -1.108396 -0.042080 -15.938726 -3.036303 -2.640929 0.000000 0.000000 0.000000 0.648588 -3.244284 -9.714901 24.763857 -8.420562 -57.198883 0.000858 -88.396459 0.000810 16.485080 -6.150192 0.927806 -0.720176 6.861956 -6.065337 14.067523 15.672158 18.732113 -0.763503 -40.567229 13.046845 0.000004 0.000001 0.000001 7.281550 13.598080 -79.926901 4.513119 5.696551 -76.759196 4.296293 5.641406 -74.564492 0.000001 -0.000004 -0.000001 2.689949 7.718509 -79.814749 6.077245 5.846693 -92.219138 3.996186 5.550229 -71.487376 -0.000004 -0.000001 0.000005 5.024724 8.131444 -82.021836 4.762307 5.749214 -79.257822 3.174357 5.204799 -62.735390 0.000001 -0.000003 -0.000001 10.267511 5.569586 -92.434446 4.145182 5.597689 -73.021450 5.615928 5.846340 -87.692847 -0.000002 0.000003 0.000002 0.819398 3.382486 11.798264 -13.137670 28.093523 45.757370 0.000069 97.100763 -0.000068 4.304528 14.900778 -10.550582 5.594600 -3.919433 -3.143472 2.376936 -8.795751 -16.136225 -9.024376 17.551554 -15.501382 0.000000 0.000001 0.000002 -3.644338 -3.446217 74.115564 3.522729 -4.517178 75.886516 2.104615 -3.896612 56.734915 -0.000002 -0.000003 0.000003 -3.117938 -5.097821 75.666420 3.831001 -4.583460 79.770537 3.322172 -4.462130 73.325059 0.000001 0.000003 -0.000009 -3.956804 -5.489135 79.951763 3.178033 -4.416519 71.463033 2.864026 -4.298829 67.332114 0.000001 0.000002 -0.000007 -1.627539 -6.557261 85.392719 3.576558 -4.530324 76.568688 1.259085 -3.186560 43.111819 -0.000001 -0.000001 0.000004 -69.915667 0.742215 4.522167 109.250296 8.946878 0.794909 8.540819 3.695580 3.041860 0.208721 0.000000 0.000001 -0.000002 -0.000000 -0.000000 -12.566032 -11.186486 3.836276 52.409281 2.027474 0.081520 -47.219751 1.190060 -3.388034 -3.224240 -0.000003 0.000000 0.000000 -0.000000 -0.000000 
3.931647 77.525200 31.811623 10.137107 1.476757 1.012013 9.443729 4.608209 2.311118 2.275913 1.794145 -1.729387 4.909000 1.678098 -2.090946 -3.939750 -1.754127 0.146630 -14.608542 -6.392605 -2.350589 -0.000001 -0.000000 0.000000 0.653484 -2.349867 -8.282170 33.154565 -9.215996 -58.158193 0.000379 -87.546920 0.000491 21.918668 -7.681547 -5.831772 -0.500697 7.381021 -6.503737 13.878734 16.295085 19.435744 -0.515998 -42.181100 13.403108 -0.000000 -0.000000 0.000000 7.221321 13.628371 -82.951985 4.730509 5.743125 -78.940116 4.570067 5.709590 -77.332426 -0.000000 -0.000003 0.000001 2.553565 7.826015 -82.796591 6.360292 5.828926 -95.001518 4.254117 5.629645 -74.135010 0.000000 0.000000 0.000003 5.333743 8.170600 -85.107627 4.991328 5.787785 -81.536135 3.385560 5.307882 -65.040217 -0.000003 0.000000 0.000007 10.940968 5.156871 -95.904168 4.344727 5.654482 -75.056553 5.950181 5.850200 -90.972410 -0.000003 -0.000000 -0.000003 0.895003 3.063901 11.141075 -10.809564 28.500884 46.532429 0.000065 102.489563 -0.000058 2.958157 24.649605 -11.463883 5.718078 -4.231253 -3.375314 2.206811 -8.195170 -16.550747 -9.184529 18.539312 -15.476029 -0.000000 -0.000002 0.000001 -3.469632 -3.752625 76.272524 3.650541 -4.547306 77.503803 2.210059 -3.963621 58.273207 -0.000003 0.000000 -0.000001 -3.209226 -5.352451 77.860181 3.970005 -4.606310 81.505993 3.484495 -4.507418 75.400514 0.000001 0.000001 -0.000001 -4.238666 -5.782145 82.266295 3.291901 -4.452975 72.935526 3.005309 -4.354981 69.204392 0.000002 0.000002 -0.000001 -2.002735 -6.813297 87.892602 3.705464 -4.559097 78.195564 1.321032 -3.251381 44.215117 0.000002 -0.000001 -0.000001 -75.919643 2.056323 1.585408 85.783454 6.875418 0.621819 12.840236 5.622271 4.295313 1.412665 -0.000003 0.000005 -0.000001 0.000000 0.000001 4.023867 -14.407435 -0.098654 40.214757 5.612874 -0.718664 -43.861200 0.124911 -0.855547 -8.990743 0.039652 -0.952429 0.000000 -0.000000 0.000000 
4.264152 80.428658 46.279320 9.722762 2.408185 3.961344 8.782343 6.142195 -0.176206 1.884225 2.570728 -2.749195 4.340770 2.397595 -3.135434 -3.629066 -2.193019 0.313187 -11.935619 -8.894013 -1.701687 0.000000 0.000000 -0.000000 0.601617 -1.545878 -7.220025 39.287750 -6.552569 -58.276663 -0.000154 -86.123112 -0.000092 20.233828 -5.697090 -13.176681 -0.197060 8.094661 -7.108335 13.582312 17.136666 20.392901 -0.079040 -44.426098 13.983749 0.000002 0.000004 -0.000001 7.154986 13.729987 -87.103135 5.031102 5.793529 -81.930195 4.949888 5.781486 -81.124807 0.000001 0.000001 0.000001 2.373087 8.019872 -86.880812 6.746032 5.782455 -98.813241 4.612922 5.718993 -77.762728 0.000001 -0.000005 0.000005 5.759756 8.197652 -89.336067 5.307430 5.825838 -84.659614 3.681400 5.435217 -68.199944 0.000001 0.000002 0.000009 11.802879 4.479969 -100.641669 4.621368 5.720822 -77.847375 6.407290 5.824650 -95.464448 -0.000002 0.000001 0.000001 0.903144 3.023607 10.514790 -8.857797 27.034497 46.280276 0.000099 105.850563 -0.000049 4.661820 36.242466 -14.579973 5.881988 -4.645488 -3.681237 1.981480 -7.395897 -17.096758 -9.405681 19.848470 -15.437551 -0.000000 -0.000001 0.000002 -3.221137 -4.141230 79.138110 3.821422 -4.581728 79.650948 2.352753 -4.048172 60.315734 0.000002 -0.000001 -0.000001 -3.317787 -5.707058 80.767328 4.155528 -4.630135 83.809734 3.702186 -4.558422 78.154542 0.000002 0.000003 0.000003 -4.596712 -6.213535 85.329184 3.444290 -4.496792 74.888366 3.195313 -4.422269 71.687070 -0.000002 0.000001 -0.000003 -2.482124 -7.216146 91.204322 3.877572 -4.591599 80.353077 1.405121 -3.335454 45.678379 0.000002 -0.000000 -0.000001 -71.180987 2.346664 -0.440198 57.357306 3.937482 0.424231 14.936669 6.829293 1.397279 2.780140 0.000004 -0.000002 0.000000 0.000001 -0.000000 16.512073 -18.951926 -2.114260 27.030776 7.911935 -1.522421 -30.821912 -0.476331 -0.268006 -20.035489 -0.253496 1.016869 0.000000 -0.000001 0.000000 
